<?xml version="1.0" encoding="UTF-8" standalone="no"?>
<!DOCTYPE svg PUBLIC "-//W3C//DTD SVG 1.1//EN" "http://www.w3.org/Graphics/SVG/1.1/DTD/svg11.dtd">
<svg width="100%" height="100%" viewBox="0 0 99 86" version="1.1" xmlns="http://www.w3.org/2000/svg" xmlns:xlink="http://www.w3.org/1999/xlink" xml:space="preserve" xmlns:serif="http://www.serif.com/" style="fill-rule:evenodd;clip-rule:evenodd;stroke-linejoin:round;stroke-miterlimit:2;">
    <g transform="matrix(1,0,0,1,-267.148,-104.149)">
        <g transform="matrix(2.18948,0,0,2.18948,-43.7471,-73.5274)">
            <g>
                <g transform="matrix(0.888855,-0.281662,0,0.888855,63.2358,112.473)">
                    <g transform="matrix(50.4705,15.8796,0,46.7468,107.393,32.1436)">
                        <path d="M0.353,0.017C0.311,0.017 0.272,0.008 0.234,-0.008C0.196,-0.024 0.162,-0.048 0.133,-0.078C0.104,-0.109 0.081,-0.146 0.064,-0.19C0.047,-0.234 0.038,-0.284 0.038,-0.34C0.038,-0.395 0.047,-0.445 0.063,-0.49C0.08,-0.535 0.104,-0.574 0.134,-0.607C0.163,-0.639 0.198,-0.664 0.239,-0.682C0.279,-0.699 0.322,-0.708 0.368,-0.708C0.402,-0.708 0.433,-0.704 0.461,-0.695C0.488,-0.687 0.515,-0.675 0.54,-0.66L0.56,-0.693L0.599,-0.693L0.603,-0.446L0.563,-0.446C0.558,-0.47 0.55,-0.496 0.54,-0.524C0.529,-0.552 0.517,-0.576 0.503,-0.596C0.487,-0.618 0.469,-0.635 0.447,-0.648C0.426,-0.66 0.401,-0.667 0.374,-0.667C0.342,-0.667 0.313,-0.66 0.286,-0.645C0.259,-0.631 0.235,-0.611 0.215,-0.583C0.196,-0.557 0.182,-0.523 0.171,-0.483C0.16,-0.442 0.155,-0.397 0.155,-0.346C0.155,-0.302 0.16,-0.261 0.172,-0.225C0.183,-0.188 0.199,-0.155 0.22,-0.127C0.24,-0.099 0.265,-0.078 0.294,-0.062C0.322,-0.046 0.354,-0.039 0.389,-0.039C0.415,-0.039 0.439,-0.043 0.462,-0.051C0.484,-0.059 0.503,-0.07 0.519,-0.084C0.535,-0.098 0.55,-0.115 0.562,-0.133C0.574,-0.151 0.584,-0.171 0.592,-0.192L0.629,-0.175C0.601,-0.106 0.564,-0.057 0.518,-0.028C0.471,0.002 0.417,0.017 0.353,0.017Z" style="fill-rule:nonzero;stroke:black;stroke-width:0.01px;"/>
                    </g>
                    <g transform="matrix(50.4705,15.8796,0,46.7468,106.26,33.5995)">
                        <path d="M0.353,0.017C0.311,0.017 0.272,0.008 0.234,-0.008C0.196,-0.024 0.162,-0.048 0.133,-0.078C0.104,-0.109 0.081,-0.146 0.064,-0.19C0.047,-0.234 0.038,-0.284 0.038,-0.34C0.038,-0.395 0.047,-0.445 0.063,-0.49C0.08,-0.535 0.104,-0.574 0.134,-0.607C0.163,-0.639 0.198,-0.664 0.239,-0.682C0.279,-0.699 0.322,-0.708 0.368,-0.708C0.402,-0.708 0.433,-0.704 0.461,-0.695C0.488,-0.687 0.515,-0.675 0.54,-0.66L0.56,-0.693L0.599,-0.693L0.603,-0.446L0.563,-0.446C0.558,-0.47 0.55,-0.496 0.54,-0.524C0.529,-0.552 0.517,-0.576 0.503,-0.596C0.487,-0.618 0.469,-0.635 0.447,-0.648C0.426,-0.66 0.401,-0.667 0.374,-0.667C0.342,-0.667 0.313,-0.66 0.286,-0.645C0.259,-0.631 0.235,-0.611 0.215,-0.583C0.196,-0.557 0.182,-0.523 0.171,-0.483C0.16,-0.442 0.155,-0.397 0.155,-0.346C0.155,-0.302 0.16,-0.261 0.172,-0.225C0.183,-0.188 0.199,-0.155 0.22,-0.127C0.24,-0.099 0.265,-0.078 0.294,-0.062C0.322,-0.046 0.354,-0.039 0.389,-0.039C0.415,-0.039 0.439,-0.043 0.462,-0.051C0.484,-0.059 0.503,-0.07 0.519,-0.084C0.535,-0.098 0.55,-0.115 0.562,-0.133C0.574,-0.151 0.584,-0.171 0.592,-0.192L0.629,-0.175C0.601,-0.106 0.564,-0.057 0.518,-0.028C0.471,0.002 0.417,0.017 0.353,0.017Z" style="fill-rule:nonzero;stroke:black;stroke-width:0.01px;"/>
                    </g>
                    <g transform="matrix(50.4705,15.8796,0,46.7468,106.128,34.0553)">
                        <path d="M0.353,0.017C0.311,0.017 0.272,0.008 0.234,-0.008C0.196,-0.024 0.162,-0.048 0.133,-0.078C0.104,-0.109 0.081,-0.146 0.064,-0.19C0.047,-0.234 0.038,-0.284 0.038,-0.34C0.038,-0.395 0.047,-0.445 0.063,-0.49C0.08,-0.535 0.104,-0.574 0.134,-0.607C0.163,-0.639 0.198,-0.664 0.239,-0.682C0.279,-0.699 0.322,-0.708 0.368,-0.708C0.402,-0.708 0.433,-0.704 0.461,-0.695C0.488,-0.687 0.515,-0.675 0.54,-0.66L0.56,-0.693L0.599,-0.693L0.603,-0.446L0.563,-0.446C0.558,-0.47 0.55,-0.496 0.54,-0.524C0.529,-0.552 0.517,-0.576 0.503,-0.596C0.487,-0.618 0.469,-0.635 0.447,-0.648C0.426,-0.66 0.401,-0.667 0.374,-0.667C0.342,-0.667 0.313,-0.66 0.286,-0.645C0.259,-0.631 0.235,-0.611 0.215,-0.583C0.196,-0.557 0.182,-0.523 0.171,-0.483C0.16,-0.442 0.155,-0.397 0.155,-0.346C0.155,-0.302 0.16,-0.261 0.172,-0.225C0.183,-0.188 0.199,-0.155 0.22,-0.127C0.24,-0.099 0.265,-0.078 0.294,-0.062C0.322,-0.046 0.354,-0.039 0.389,-0.039C0.415,-0.039 0.439,-0.043 0.462,-0.051C0.484,-0.059 0.503,-0.07 0.519,-0.084C0.535,-0.098 0.55,-0.115 0.562,-0.133C0.574,-0.151 0.584,-0.171 0.592,-0.192L0.629,-0.175C0.601,-0.106 0.564,-0.057 0.518,-0.028C0.471,0.002 0.417,0.017 0.353,0.017Z" style="fill:white;fill-rule:nonzero;stroke:black;stroke-width:0.01px;"/>
                    </g>
                    <g transform="matrix(50.4705,15.8796,0,46.7468,105.996,34.5111)">
                        <path d="M0.353,0.017C0.311,0.017 0.272,0.008 0.234,-0.008C0.196,-0.024 0.162,-0.048 0.133,-0.078C0.104,-0.109 0.081,-0.146 0.064,-0.19C0.047,-0.234 0.038,-0.284 0.038,-0.34C0.038,-0.395 0.047,-0.445 0.063,-0.49C0.08,-0.535 0.104,-0.574 0.134,-0.607C0.163,-0.639 0.198,-0.664 0.239,-0.682C0.279,-0.699 0.322,-0.708 0.368,-0.708C0.402,-0.708 0.433,-0.704 0.461,-0.695C0.488,-0.687 0.515,-0.675 0.54,-0.66L0.56,-0.693L0.599,-0.693L0.603,-0.446L0.563,-0.446C0.558,-0.47 0.55,-0.496 0.54,-0.524C0.529,-0.552 0.517,-0.576 0.503,-0.596C0.487,-0.618 0.469,-0.635 0.447,-0.648C0.426,-0.66 0.401,-0.667 0.374,-0.667C0.342,-0.667 0.313,-0.66 0.286,-0.645C0.259,-0.631 0.235,-0.611 0.215,-0.583C0.196,-0.557 0.182,-0.523 0.171,-0.483C0.16,-0.442 0.155,-0.397 0.155,-0.346C0.155,-0.302 0.16,-0.261 0.172,-0.225C0.183,-0.188 0.199,-0.155 0.22,-0.127C0.24,-0.099 0.265,-0.078 0.294,-0.062C0.322,-0.046 0.354,-0.039 0.389,-0.039C0.415,-0.039 0.439,-0.043 0.462,-0.051C0.484,-0.059 0.503,-0.07 0.519,-0.084C0.535,-0.098 0.55,-0.115 0.562,-0.133C0.574,-0.151 0.584,-0.171 0.592,-0.192L0.629,-0.175C0.601,-0.106 0.564,-0.057 0.518,-0.028C0.471,0.002 0.417,0.017 0.353,0.017Z" style="fill:white;fill-rule:nonzero;stroke:black;stroke-width:0.01px;"/>
                    </g>
                    <g transform="matrix(50.4705,15.8796,0,46.7468,105.864,34.9669)">
                        <path d="M0.353,0.017C0.311,0.017 0.272,0.008 0.234,-0.008C0.196,-0.024 0.162,-0.048 0.133,-0.078C0.104,-0.109 0.081,-0.146 0.064,-0.19C0.047,-0.234 0.038,-0.284 0.038,-0.34C0.038,-0.395 0.047,-0.445 0.063,-0.49C0.08,-0.535 0.104,-0.574 0.134,-0.607C0.163,-0.639 0.198,-0.664 0.239,-0.682C0.279,-0.699 0.322,-0.708 0.368,-0.708C0.402,-0.708 0.433,-0.704 0.461,-0.695C0.488,-0.687 0.515,-0.675 0.54,-0.66L0.56,-0.693L0.599,-0.693L0.603,-0.446L0.563,-0.446C0.558,-0.47 0.55,-0.496 0.54,-0.524C0.529,-0.552 0.517,-0.576 0.503,-0.596C0.487,-0.618 0.469,-0.635 0.447,-0.648C0.426,-0.66 0.401,-0.667 0.374,-0.667C0.342,-0.667 0.313,-0.66 0.286,-0.645C0.259,-0.631 0.235,-0.611 0.215,-0.583C0.196,-0.557 0.182,-0.523 0.171,-0.483C0.16,-0.442 0.155,-0.397 0.155,-0.346C0.155,-0.302 0.16,-0.261 0.172,-0.225C0.183,-0.188 0.199,-0.155 0.22,-0.127C0.24,-0.099 0.265,-0.078 0.294,-0.062C0.322,-0.046 0.354,-0.039 0.389,-0.039C0.415,-0.039 0.439,-0.043 0.462,-0.051C0.484,-0.059 0.503,-0.07 0.519,-0.084C0.535,-0.098 0.55,-0.115 0.562,-0.133C0.574,-0.151 0.584,-0.171 0.592,-0.192L0.629,-0.175C0.601,-0.106 0.564,-0.057 0.518,-0.028C0.471,0.002 0.417,0.017 0.353,0.017Z" style="fill:white;fill-rule:nonzero;stroke:black;stroke-width:0.01px;"/>
                    </g>
                    <g transform="matrix(50.4705,15.8796,0,46.7468,105.731,35.4228)">
                        <path d="M0.353,0.017C0.311,0.017 0.272,0.008 0.234,-0.008C0.196,-0.024 0.162,-0.048 0.133,-0.078C0.104,-0.109 0.081,-0.146 0.064,-0.19C0.047,-0.234 0.038,-0.284 0.038,-0.34C0.038,-0.395 0.047,-0.445 0.063,-0.49C0.08,-0.535 0.104,-0.574 0.134,-0.607C0.163,-0.639 0.198,-0.664 0.239,-0.682C0.279,-0.699 0.322,-0.708 0.368,-0.708C0.402,-0.708 0.433,-0.704 0.461,-0.695C0.488,-0.687 0.515,-0.675 0.54,-0.66L0.56,-0.693L0.599,-0.693L0.603,-0.446L0.563,-0.446C0.558,-0.47 0.55,-0.496 0.54,-0.524C0.529,-0.552 0.517,-0.576 0.503,-0.596C0.487,-0.618 0.469,-0.635 0.447,-0.648C0.426,-0.66 0.401,-0.667 0.374,-0.667C0.342,-0.667 0.313,-0.66 0.286,-0.645C0.259,-0.631 0.235,-0.611 0.215,-0.583C0.196,-0.557 0.182,-0.523 0.171,-0.483C0.16,-0.442 0.155,-0.397 0.155,-0.346C0.155,-0.302 0.16,-0.261 0.172,-0.225C0.183,-0.188 0.199,-0.155 0.22,-0.127C0.24,-0.099 0.265,-0.078 0.294,-0.062C0.322,-0.046 0.354,-0.039 0.389,-0.039C0.415,-0.039 0.439,-0.043 0.462,-0.051C0.484,-0.059 0.503,-0.07 0.519,-0.084C0.535,-0.098 0.55,-0.115 0.562,-0.133C0.574,-0.151 0.584,-0.171 0.592,-0.192L0.629,-0.175C0.601,-0.106 0.564,-0.057 0.518,-0.028C0.471,0.002 0.417,0.017 0.353,0.017Z" style="fill:white;fill-rule:nonzero;stroke:black;stroke-width:0.01px;"/>
                    </g>
                    <g transform="matrix(50.4705,15.8796,0,46.7468,105.599,35.8786)">
                        <path d="M0.353,0.017C0.311,0.017 0.272,0.008 0.234,-0.008C0.196,-0.024 0.162,-0.048 0.133,-0.078C0.104,-0.109 0.081,-0.146 0.064,-0.19C0.047,-0.234 0.038,-0.284 0.038,-0.34C0.038,-0.395 0.047,-0.445 0.063,-0.49C0.08,-0.535 0.104,-0.574 0.134,-0.607C0.163,-0.639 0.198,-0.664 0.239,-0.682C0.279,-0.699 0.322,-0.708 0.368,-0.708C0.402,-0.708 0.433,-0.704 0.461,-0.695C0.488,-0.687 0.515,-0.675 0.54,-0.66L0.56,-0.693L0.599,-0.693L0.603,-0.446L0.563,-0.446C0.558,-0.47 0.55,-0.496 0.54,-0.524C0.529,-0.552 0.517,-0.576 0.503,-0.596C0.487,-0.618 0.469,-0.635 0.447,-0.648C0.426,-0.66 0.401,-0.667 0.374,-0.667C0.342,-0.667 0.313,-0.66 0.286,-0.645C0.259,-0.631 0.235,-0.611 0.215,-0.583C0.196,-0.557 0.182,-0.523 0.171,-0.483C0.16,-0.442 0.155,-0.397 0.155,-0.346C0.155,-0.302 0.16,-0.261 0.172,-0.225C0.183,-0.188 0.199,-0.155 0.22,-0.127C0.24,-0.099 0.265,-0.078 0.294,-0.062C0.322,-0.046 0.354,-0.039 0.389,-0.039C0.415,-0.039 0.439,-0.043 0.462,-0.051C0.484,-0.059 0.503,-0.07 0.519,-0.084C0.535,-0.098 0.55,-0.115 0.562,-0.133C0.574,-0.151 0.584,-0.171 0.592,-0.192L0.629,-0.175C0.601,-0.106 0.564,-0.057 0.518,-0.028C0.471,0.002 0.417,0.017 0.353,0.017Z" style="fill:white;fill-rule:nonzero;stroke:black;stroke-width:0.01px;"/>
                    </g>
                </g>
                <g transform="matrix(-0.888855,-0.267517,5.47799e-33,0.888855,265.815,115.318)">
                    <g transform="matrix(50.4705,15.8796,0,46.7468,107.393,32.1436)">
                        <path d="M0.353,0.017C0.311,0.017 0.272,0.008 0.234,-0.008C0.196,-0.024 0.162,-0.048 0.133,-0.078C0.104,-0.109 0.081,-0.146 0.064,-0.19C0.047,-0.234 0.038,-0.284 0.038,-0.34C0.038,-0.395 0.047,-0.445 0.063,-0.49C0.08,-0.535 0.104,-0.574 0.134,-0.607C0.163,-0.639 0.198,-0.664 0.239,-0.682C0.279,-0.699 0.322,-0.708 0.368,-0.708C0.402,-0.708 0.433,-0.704 0.461,-0.695C0.488,-0.687 0.515,-0.675 0.54,-0.66L0.56,-0.693L0.599,-0.693L0.603,-0.446L0.563,-0.446C0.558,-0.47 0.55,-0.496 0.54,-0.524C0.529,-0.552 0.517,-0.576 0.503,-0.596C0.487,-0.618 0.469,-0.635 0.447,-0.648C0.426,-0.66 0.401,-0.667 0.374,-0.667C0.342,-0.667 0.313,-0.66 0.286,-0.645C0.259,-0.631 0.235,-0.611 0.215,-0.583C0.196,-0.557 0.182,-0.523 0.171,-0.483C0.16,-0.442 0.155,-0.397 0.155,-0.346C0.155,-0.302 0.16,-0.261 0.172,-0.225C0.183,-0.188 0.199,-0.155 0.22,-0.127C0.24,-0.099 0.265,-0.078 0.294,-0.062C0.322,-0.046 0.354,-0.039 0.389,-0.039C0.415,-0.039 0.439,-0.043 0.462,-0.051C0.484,-0.059 0.503,-0.07 0.519,-0.084C0.535,-0.098 0.55,-0.115 0.562,-0.133C0.574,-0.151 0.584,-0.171 0.592,-0.192L0.629,-0.175C0.601,-0.106 0.564,-0.057 0.518,-0.028C0.471,0.002 0.417,0.017 0.353,0.017Z" style="fill-rule:nonzero;stroke:black;stroke-width:0.01px;"/>
                    </g>
                    <g transform="matrix(50.4705,15.8796,0,46.7468,106.26,33.5995)">
                        <path d="M0.353,0.017C0.311,0.017 0.272,0.008 0.234,-0.008C0.196,-0.024 0.162,-0.048 0.133,-0.078C0.104,-0.109 0.081,-0.146 0.064,-0.19C0.047,-0.234 0.038,-0.284 0.038,-0.34C0.038,-0.395 0.047,-0.445 0.063,-0.49C0.08,-0.535 0.104,-0.574 0.134,-0.607C0.163,-0.639 0.198,-0.664 0.239,-0.682C0.279,-0.699 0.322,-0.708 0.368,-0.708C0.402,-0.708 0.433,-0.704 0.461,-0.695C0.488,-0.687 0.515,-0.675 0.54,-0.66L0.56,-0.693L0.599,-0.693L0.603,-0.446L0.563,-0.446C0.558,-0.47 0.55,-0.496 0.54,-0.524C0.529,-0.552 0.517,-0.576 0.503,-0.596C0.487,-0.618 0.469,-0.635 0.447,-0.648C0.426,-0.66 0.401,-0.667 0.374,-0.667C0.342,-0.667 0.313,-0.66 0.286,-0.645C0.259,-0.631 0.235,-0.611 0.215,-0.583C0.196,-0.557 0.182,-0.523 0.171,-0.483C0.16,-0.442 0.155,-0.397 0.155,-0.346C0.155,-0.302 0.16,-0.261 0.172,-0.225C0.183,-0.188 0.199,-0.155 0.22,-0.127C0.24,-0.099 0.265,-0.078 0.294,-0.062C0.322,-0.046 0.354,-0.039 0.389,-0.039C0.415,-0.039 0.439,-0.043 0.462,-0.051C0.484,-0.059 0.503,-0.07 0.519,-0.084C0.535,-0.098 0.55,-0.115 0.562,-0.133C0.574,-0.151 0.584,-0.171 0.592,-0.192L0.629,-0.175C0.601,-0.106 0.564,-0.057 0.518,-0.028C0.471,0.002 0.417,0.017 0.353,0.017Z" style="fill-rule:nonzero;stroke:black;stroke-width:0.01px;"/>
                    </g>
                    <g transform="matrix(50.4705,15.8796,0,46.7468,106.128,34.0553)">
                        <path d="M0.353,0.017C0.311,0.017 0.272,0.008 0.234,-0.008C0.196,-0.024 0.162,-0.048 0.133,-0.078C0.104,-0.109 0.081,-0.146 0.064,-0.19C0.047,-0.234 0.038,-0.284 0.038,-0.34C0.038,-0.395 0.047,-0.445 0.063,-0.49C0.08,-0.535 0.104,-0.574 0.134,-0.607C0.163,-0.639 0.198,-0.664 0.239,-0.682C0.279,-0.699 0.322,-0.708 0.368,-0.708C0.402,-0.708 0.433,-0.704 0.461,-0.695C0.488,-0.687 0.515,-0.675 0.54,-0.66L0.56,-0.693L0.599,-0.693L0.603,-0.446L0.563,-0.446C0.558,-0.47 0.55,-0.496 0.54,-0.524C0.529,-0.552 0.517,-0.576 0.503,-0.596C0.487,-0.618 0.469,-0.635 0.447,-0.648C0.426,-0.66 0.401,-0.667 0.374,-0.667C0.342,-0.667 0.313,-0.66 0.286,-0.645C0.259,-0.631 0.235,-0.611 0.215,-0.583C0.196,-0.557 0.182,-0.523 0.171,-0.483C0.16,-0.442 0.155,-0.397 0.155,-0.346C0.155,-0.302 0.16,-0.261 0.172,-0.225C0.183,-0.188 0.199,-0.155 0.22,-0.127C0.24,-0.099 0.265,-0.078 0.294,-0.062C0.322,-0.046 0.354,-0.039 0.389,-0.039C0.415,-0.039 0.439,-0.043 0.462,-0.051C0.484,-0.059 0.503,-0.07 0.519,-0.084C0.535,-0.098 0.55,-0.115 0.562,-0.133C0.574,-0.151 0.584,-0.171 0.592,-0.192L0.629,-0.175C0.601,-0.106 0.564,-0.057 0.518,-0.028C0.471,0.002 0.417,0.017 0.353,0.017Z" style="fill:white;fill-rule:nonzero;stroke:black;stroke-width:0.01px;"/>
                    </g>
                    <g transform="matrix(50.4705,15.8796,0,46.7468,105.996,34.5111)">
                        <path d="M0.353,0.017C0.311,0.017 0.272,0.008 0.234,-0.008C0.196,-0.024 0.162,-0.048 0.133,-0.078C0.104,-0.109 0.081,-0.146 0.064,-0.19C0.047,-0.234 0.038,-0.284 0.038,-0.34C0.038,-0.395 0.047,-0.445 0.063,-0.49C0.08,-0.535 0.104,-0.574 0.134,-0.607C0.163,-0.639 0.198,-0.664 0.239,-0.682C0.279,-0.699 0.322,-0.708 0.368,-0.708C0.402,-0.708 0.433,-0.704 0.461,-0.695C0.488,-0.687 0.515,-0.675 0.54,-0.66L0.56,-0.693L0.599,-0.693L0.603,-0.446L0.563,-0.446C0.558,-0.47 0.55,-0.496 0.54,-0.524C0.529,-0.552 0.517,-0.576 0.503,-0.596C0.487,-0.618 0.469,-0.635 0.447,-0.648C0.426,-0.66 0.401,-0.667 0.374,-0.667C0.342,-0.667 0.313,-0.66 0.286,-0.645C0.259,-0.631 0.235,-0.611 0.215,-0.583C0.196,-0.557 0.182,-0.523 0.171,-0.483C0.16,-0.442 0.155,-0.397 0.155,-0.346C0.155,-0.302 0.16,-0.261 0.172,-0.225C0.183,-0.188 0.199,-0.155 0.22,-0.127C0.24,-0.099 0.265,-0.078 0.294,-0.062C0.322,-0.046 0.354,-0.039 0.389,-0.039C0.415,-0.039 0.439,-0.043 0.462,-0.051C0.484,-0.059 0.503,-0.07 0.519,-0.084C0.535,-0.098 0.55,-0.115 0.562,-0.133C0.574,-0.151 0.584,-0.171 0.592,-0.192L0.629,-0.175C0.601,-0.106 0.564,-0.057 0.518,-0.028C0.471,0.002 0.417,0.017 0.353,0.017Z" style="fill:white;fill-rule:nonzero;stroke:black;stroke-width:0.01px;"/>
                    </g>
                    <g transform="matrix(50.4705,15.8796,0,46.7468,105.864,34.9669)">
                        <path d="M0.353,0.017C0.311,0.017 0.272,0.008 0.234,-0.008C0.196,-0.024 0.162,-0.048 0.133,-0.078C0.104,-0.109 0.081,-0.146 0.064,-0.19C0.047,-0.234 0.038,-0.284 0.038,-0.34C0.038,-0.395 0.047,-0.445 0.063,-0.49C0.08,-0.535 0.104,-0.574 0.134,-0.607C0.163,-0.639 0.198,-0.664 0.239,-0.682C0.279,-0.699 0.322,-0.708 0.368,-0.708C0.402,-0.708 0.433,-0.704 0.461,-0.695C0.488,-0.687 0.515,-0.675 0.54,-0.66L0.56,-0.693L0.599,-0.693L0.603,-0.446L0.563,-0.446C0.558,-0.47 0.55,-0.496 0.54,-0.524C0.529,-0.552 0.517,-0.576 0.503,-0.596C0.487,-0.618 0.469,-0.635 0.447,-0.648C0.426,-0.66 0.401,-0.667 0.374,-0.667C0.342,-0.667 0.313,-0.66 0.286,-0.645C0.259,-0.631 0.235,-0.611 0.215,-0.583C0.196,-0.557 0.182,-0.523 0.171,-0.483C0.16,-0.442 0.155,-0.397 0.155,-0.346C0.155,-0.302 0.16,-0.261 0.172,-0.225C0.183,-0.188 0.199,-0.155 0.22,-0.127C0.24,-0.099 0.265,-0.078 0.294,-0.062C0.322,-0.046 0.354,-0.039 0.389,-0.039C0.415,-0.039 0.439,-0.043 0.462,-0.051C0.484,-0.059 0.503,-0.07 0.519,-0.084C0.535,-0.098 0.55,-0.115 0.562,-0.133C0.574,-0.151 0.584,-0.171 0.592,-0.192L0.629,-0.175C0.601,-0.106 0.564,-0.057 0.518,-0.028C0.471,0.002 0.417,0.017 0.353,0.017Z" style="fill:white;fill-rule:nonzero;stroke:black;stroke-width:0.01px;"/>
                    </g>
                    <g transform="matrix(50.4705,15.8796,0,46.7468,105.731,35.4228)">
                        <path d="M0.353,0.017C0.311,0.017 0.272,0.008 0.234,-0.008C0.196,-0.024 0.162,-0.048 0.133,-0.078C0.104,-0.109 0.081,-0.146 0.064,-0.19C0.047,-0.234 0.038,-0.284 0.038,-0.34C0.038,-0.395 0.047,-0.445 0.063,-0.49C0.08,-0.535 0.104,-0.574 0.134,-0.607C0.163,-0.639 0.198,-0.664 0.239,-0.682C0.279,-0.699 0.322,-0.708 0.368,-0.708C0.402,-0.708 0.433,-0.704 0.461,-0.695C0.488,-0.687 0.515,-0.675 0.54,-0.66L0.56,-0.693L0.599,-0.693L0.603,-0.446L0.563,-0.446C0.558,-0.47 0.55,-0.496 0.54,-0.524C0.529,-0.552 0.517,-0.576 0.503,-0.596C0.487,-0.618 0.469,-0.635 0.447,-0.648C0.426,-0.66 0.401,-0.667 0.374,-0.667C0.342,-0.667 0.313,-0.66 0.286,-0.645C0.259,-0.631 0.235,-0.611 0.215,-0.583C0.196,-0.557 0.182,-0.523 0.171,-0.483C0.16,-0.442 0.155,-0.397 0.155,-0.346C0.155,-0.302 0.16,-0.261 0.172,-0.225C0.183,-0.188 0.199,-0.155 0.22,-0.127C0.24,-0.099 0.265,-0.078 0.294,-0.062C0.322,-0.046 0.354,-0.039 0.389,-0.039C0.415,-0.039 0.439,-0.043 0.462,-0.051C0.484,-0.059 0.503,-0.07 0.519,-0.084C0.535,-0.098 0.55,-0.115 0.562,-0.133C0.574,-0.151 0.584,-0.171 0.592,-0.192L0.629,-0.175C0.601,-0.106 0.564,-0.057 0.518,-0.028C0.471,0.002 0.417,0.017 0.353,0.017Z" style="fill:white;fill-rule:nonzero;stroke:black;stroke-width:0.01px;"/>
                    </g>
                    <g transform="matrix(50.4705,15.8796,0,46.7468,105.599,35.8786)">
                        <path d="M0.353,0.017C0.311,0.017 0.272,0.008 0.234,-0.008C0.196,-0.024 0.162,-0.048 0.133,-0.078C0.104,-0.109 0.081,-0.146 0.064,-0.19C0.047,-0.234 0.038,-0.284 0.038,-0.34C0.038,-0.395 0.047,-0.445 0.063,-0.49C0.08,-0.535 0.104,-0.574 0.134,-0.607C0.163,-0.639 0.198,-0.664 0.239,-0.682C0.279,-0.699 0.322,-0.708 0.368,-0.708C0.402,-0.708 0.433,-0.704 0.461,-0.695C0.488,-0.687 0.515,-0.675 0.54,-0.66L0.56,-0.693L0.599,-0.693L0.603,-0.446L0.563,-0.446C0.558,-0.47 0.55,-0.496 0.54,-0.524C0.529,-0.552 0.517,-0.576 0.503,-0.596C0.487,-0.618 0.469,-0.635 0.447,-0.648C0.426,-0.66 0.401,-0.667 0.374,-0.667C0.342,-0.667 0.313,-0.66 0.286,-0.645C0.259,-0.631 0.235,-0.611 0.215,-0.583C0.196,-0.557 0.182,-0.523 0.171,-0.483C0.16,-0.442 0.155,-0.397 0.155,-0.346C0.155,-0.302 0.16,-0.261 0.172,-0.225C0.183,-0.188 0.199,-0.155 0.22,-0.127C0.24,-0.099 0.265,-0.078 0.294,-0.062C0.322,-0.046 0.354,-0.039 0.389,-0.039C0.415,-0.039 0.439,-0.043 0.462,-0.051C0.484,-0.059 0.503,-0.07 0.519,-0.084C0.535,-0.098 0.55,-0.115 0.562,-0.133C0.574,-0.151 0.584,-0.171 0.592,-0.192L0.629,-0.175C0.601,-0.106 0.564,-0.057 0.518,-0.028C0.471,0.002 0.417,0.017 0.353,0.017Z" style="fill:white;fill-rule:nonzero;stroke:black;stroke-width:0.01px;"/>
                    </g>
                </g>
            </g>
        </g>
    </g>
</svg>
